<svg width="601" height="503" viewBox="0 0 601 503" fill="none" xmlns="http://www.w3.org/2000/svg">
<path d="M581.638 49.3305L586.182 39.0262L575.585 35.2139L512.079 12.3666C500.966 8.3684 490.174 15.4735 486.281 24.6959L495.954 28.7792L486.281 24.696C482.306 34.1134 485.134 47.1 496.868 51.3215L510.434 56.2022C460.48 88.4616 410.94 136.821 383.369 198.78C312.259 179.207 232.364 190.377 162.808 245.569C151.555 254.497 141.124 264.616 131.66 275.639C79.678 262.968 19.4376 267.583 -32.9081 286.732C-52.5492 293.917 -71.5064 303.333 -88.7108 314.955C-97.8361 310.316 -107.823 306.87 -118.601 304.878C-141.872 300.579 -169.801 309.113 -188.943 316.524C-199.099 320.457 -208.027 324.584 -214.415 327.724L-214.558 327.361L-224.958 333.18L-224.968 333.186L-224.969 333.187L-224.973 333.189L-224.991 333.199L-225.009 333.209L-225.014 333.212L-225.038 333.225L-225.062 333.239L-225.063 333.239C-234.041 338.263 -239.043 349.737 -235.038 359.946L-235.038 359.946C-230.532 371.428 -217.635 374.598 -207.91 369.16L-207.84 369.121C-207.838 369.119 -207.835 369.118 -207.833 369.117C-207.757 369.075 -207.629 369.005 -207.453 368.909C-207.092 368.712 -206.529 368.408 -205.782 368.013L-210.69 358.731L-205.782 368.013C-204.286 367.222 -202.065 366.072 -199.273 364.699C-193.666 361.943 -185.876 358.346 -177.127 354.958C-168.109 351.466 -158.719 348.457 -149.965 346.649C-141.071 344.812 -133.57 344.374 -128.006 345.402C-127.029 345.582 -126.063 345.78 -125.108 345.996C-147.993 370.862 -163.84 401.76 -167.412 438.313C-169.36 458.241 -167.035 481.732 -158.325 501.06C-149.458 520.737 -132.393 538.718 -104.865 538.894C-74.9035 539.086 -53.4335 518.292 -41.013 495.672C-28.6072 473.08 -22.7889 445.038 -23.9749 420.394C-25.3551 391.713 -36.181 362.872 -55.4961 340.889C-45.0541 334.98 -33.7625 329.808 -21.815 325.437C18.8879 310.548 64.823 305.991 105.397 312.708C81.5256 353.956 69.2914 402.325 74.7326 448.237C77.7279 473.51 91.7503 495.834 110.263 510.538C128.81 525.269 153.876 533.876 180.077 528.058C209.772 521.464 232.018 505.696 245.447 483.238C258.546 461.333 261.671 435.729 258.503 411.513C252.235 363.614 220.497 313.902 173.707 290.744C173.1 290.443 172.491 290.146 171.879 289.852C176.313 285.512 180.938 281.423 185.734 277.617C243.212 232.01 309.356 222.046 369.475 238.188C366.683 248.794 364.547 259.718 363.154 270.947C358.071 311.916 377.408 355.283 402.721 381.399C415.527 394.612 431.753 405.415 449.829 408.032C467.755 410.628 488.663 407.693 504.812 388.198C517.187 373.259 523.586 354.741 525.773 339.269C528.078 322.965 524.911 307.583 518.187 293.676C505.104 266.619 477.878 243.605 445.123 224.696C437.063 220.043 428.771 215.81 420.284 212.026C441.188 166.11 475.355 131.597 514.168 105.017L510.328 114.221C506.285 123.542 508.883 136.483 520.46 140.926C531.525 145.173 542.442 138.217 546.479 129.061L581.638 49.3305ZM-209.807 337.141L-214.332 327.937L-214.332 327.936L-209.807 337.141ZM-127.749 439.746C-124.939 411.002 -111.156 386.011 -89.5125 365.643C-74.0194 381.018 -64.8607 402.931 -63.793 425.116C-62.9508 442.617 -67.2956 462.484 -75.3771 477.201C-83.4053 491.822 -92.7281 497.805 -102.084 497.745C-110.23 497.693 -116.871 493.094 -121.961 481.798C-127.234 470.098 -129.147 454.057 -127.749 439.746ZM114.311 440.634C109.705 401.77 121.462 359.138 144.495 323.503C147.974 324.915 151.361 326.434 154.647 328.06C189.708 345.413 214.313 383.899 218.985 419.61C221.286 437.189 218.535 452.245 211.912 463.321C205.617 473.849 194.3 483.366 174.128 487.846C161.691 490.607 147.763 486.827 135.836 477.354C123.869 467.85 115.911 454.129 114.311 440.634ZM402.695 273.495C403.609 266.124 404.919 258.894 406.592 251.809C412.498 254.585 418.307 257.621 424.003 260.91C454.474 278.5 474.057 296.909 482.262 313.879C486.18 321.982 487.28 329.265 486.329 335.992C485.211 343.901 482.152 354.324 475.265 362.638C472.769 365.651 470.406 366.832 468.085 367.371C465.431 367.988 462.193 367.909 457.797 367.272C450.692 366.244 441.393 361.287 431.82 351.41C412.375 331.349 399.506 299.192 402.695 273.495Z" fill="black" stroke="#FCFFEE" stroke-width="21" stroke-linecap="round"/>
</svg>
